<?xml version="1.0" standalone="no"?>
<!DOCTYPE svg PUBLIC "-//W3C//DTD SVG 20010904//EN"
 "http://www.w3.org/TR/2001/REC-SVG-20010904/DTD/svg10.dtd">
<svg version="1.0" xmlns="http://www.w3.org/2000/svg"
 width="512.000000pt" height="512.000000pt" viewBox="0 0 512.000000 512.000000"
 preserveAspectRatio="xMidYMid meet">
<metadata>
Created by potrace 1.11, written by Peter Selinger 2001-2013
</metadata>
<g transform="translate(0.000000,512.000000) scale(0.100000,-0.100000)"
fill="#000000" stroke="none">
<path d="M2397 5054 c-1 -1 -20 -4 -43 -6 -23 -3 -46 -8 -53 -12 -6 -4 -11 -2
-11 4 0 7 -6 8 -17 2 -10 -6 -43 -13 -73 -18 -30 -4 -57 -8 -60 -9 -3 0 -9 -3
-15 -6 -5 -4 -18 -5 -27 -4 -10 2 -18 0 -18 -4 0 -4 -8 -7 -17 -8 -19 -1 -35
-5 -92 -22 -19 -6 -38 -8 -44 -4 -6 3 -7 1 -3 -5 4 -8 0 -12 -11 -12 -11 0
-24 -5 -31 -12 -7 -7 -12 -8 -12 -4 0 5 -7 3 -15 -4 -8 -7 -15 -9 -15 -5 0 4
-7 2 -15 -5 -8 -7 -15 -9 -15 -4 0 4 -7 -1 -16 -12 -8 -10 -12 -12 -8 -4 5 10
0 9 -14 -4 -12 -11 -22 -16 -22 -13 0 3 -30 -10 -67 -30 -38 -19 -81 -42 -98
-51 -16 -8 -32 -18 -35 -22 -3 -3 -22 -14 -42 -23 -21 -10 -38 -22 -38 -27 0
-6 -7 -10 -15 -10 -9 0 -18 -7 -21 -15 -4 -8 -11 -15 -18 -15 -6 0 -23 -10
-37 -23 -15 -12 -48 -40 -75 -62 -63 -53 -134 -125 -134 -136 0 -5 -5 -9 -10
-9 -14 0 -59 -52 -60 -68 0 -7 -3 -11 -8 -9 -9 5 -42 -30 -35 -37 4 -3 2 -6
-4 -6 -6 0 -30 -30 -54 -67 -23 -38 -47 -72 -53 -78 -6 -5 -22 -34 -35 -62
-14 -29 -28 -53 -33 -53 -4 0 -7 -3 -6 -7 1 -5 -10 -30 -24 -58 -14 -27 -31
-67 -37 -88 -7 -20 -16 -35 -19 -33 -4 2 -8 -6 -8 -17 -3 -31 -39 -158 -45
-153 -4 4 -7 -18 -9 -66 -1 -10 -4 -18 -8 -18 -4 0 -8 -15 -9 -33 0 -17 -4
-59 -8 -92 -9 -75 -10 -311 -1 -385 12 -107 15 -125 17 -127 1 -2 3 -7 4 -13
1 -5 4 -13 5 -17 1 -5 3 -12 4 -18 5 -32 18 -83 26 -100 5 -11 18 -51 31 -90
12 -38 24 -74 28 -80 3 -5 6 -12 6 -15 2 -10 50 -105 56 -110 4 -3 9 -14 13
-25 5 -18 123 -206 143 -230 5 -5 20 -28 33 -50 13 -22 29 -43 34 -47 7 -5 7
-8 1 -8 -5 0 -2 -5 7 -11 10 -5 18 -17 18 -24 0 -8 5 -15 10 -15 6 0 10 -5 10
-10 0 -12 41 -73 53 -78 4 -2 7 -8 7 -12 0 -5 45 -77 100 -160 55 -82 100
-154 100 -159 0 -5 4 -11 8 -13 11 -4 72 -94 72 -106 0 -5 9 -17 20 -27 11
-10 20 -24 20 -31 0 -7 3 -14 8 -16 7 -3 84 -115 91 -133 2 -5 17 -27 33 -47
16 -21 27 -38 23 -38 -3 0 0 -6 7 -14 7 -7 18 -22 25 -32 7 -11 75 -115 153
-232 77 -117 140 -217 140 -222 0 -6 4 -10 8 -10 5 0 15 -12 23 -28 8 -15 22
-36 32 -46 9 -11 17 -24 17 -28 0 -5 9 -18 20 -30 11 -12 26 -34 32 -50 7 -15
16 -28 19 -28 4 0 12 -13 19 -30 7 -16 16 -30 21 -30 5 0 9 -7 9 -15 0 -8 5
-15 12 -15 6 0 9 -3 5 -6 -3 -3 5 -18 19 -32 13 -15 24 -30 24 -35 0 -10 42
-71 53 -75 4 -2 7 -8 7 -13 0 -5 37 -64 81 -132 45 -67 96 -143 113 -169 30
-46 46 -59 46 -37 0 6 9 23 20 37 12 15 38 54 59 87 21 33 89 136 150 228 61
92 111 172 111 178 0 5 5 9 10 9 6 0 14 8 17 18 4 9 22 38 40 64 18 26 33 52
33 57 0 5 3 11 8 13 9 4 42 53 61 90 8 16 18 28 23 28 4 0 8 7 8 15 0 8 5 15
10 15 6 0 10 5 10 11 0 7 16 34 35 60 19 27 35 54 35 59 0 6 4 10 8 10 5 0 15
12 23 28 8 15 17 29 20 32 3 3 23 33 44 67 21 35 42 63 47 63 5 0 6 5 3 10 -3
6 -1 10 4 10 6 0 11 4 11 9 0 8 117 191 140 218 6 7 15 24 22 38 6 14 15 25
19 25 4 0 10 8 14 19 3 10 16 31 30 47 13 15 22 31 19 36 -3 4 -1 8 5 8 5 0
13 9 16 20 3 11 12 26 18 33 22 22 117 168 117 177 0 6 5 10 10 10 6 0 10 5
10 10 0 12 41 73 53 78 4 2 7 10 7 18 0 8 5 14 10 14 6 0 10 5 10 10 0 6 16
33 35 60 19 27 35 52 35 55 0 3 9 15 20 27 11 12 20 28 20 35 0 7 5 13 12 13
6 0 8 3 5 6 -4 4 3 15 14 25 11 10 22 24 23 31 1 7 18 36 38 63 21 28 43 61
50 75 7 14 16 27 19 30 8 7 111 178 109 182 -1 2 11 28 26 58 36 69 54 121 48
132 -3 4 -1 8 3 8 7 0 49 120 58 167 2 10 4 18 6 18 1 0 2 11 3 25 1 14 4 30
8 35 3 6 4 18 3 28 -2 9 0 17 4 17 8 0 11 39 15 255 1 94 0 174 -3 180 -2 5
-6 30 -7 55 -1 25 -4 52 -7 60 -9 21 -19 70 -21 98 0 12 -4 22 -8 22 -4 0 -5
9 -3 20 2 11 0 20 -4 20 -8 0 -38 100 -33 113 1 4 -2 7 -6 7 -4 0 -19 29 -32
65 -13 36 -28 65 -33 65 -4 0 -6 4 -2 9 3 5 -1 15 -8 23 -15 16 -41 70 -39 81
1 4 -2 7 -8 7 -5 0 -10 6 -10 13 0 7 -8 22 -18 33 -10 10 -21 26 -24 34 -11
28 -98 140 -109 140 -5 0 -8 4 -4 9 10 17 -273 291 -325 315 -11 5 -20 13 -20
18 0 5 -4 6 -10 3 -5 -3 -10 -3 -10 2 0 4 -21 21 -48 38 -26 16 -49 32 -52 35
-3 3 -18 12 -35 20 -16 8 -42 23 -57 33 -16 10 -28 16 -28 12 0 -3 -11 2 -25
11 -14 9 -25 13 -25 8 0 -4 -6 -1 -12 7 -7 9 -32 22 -55 29 -24 7 -43 18 -43
23 0 6 -3 8 -6 4 -4 -3 -19 0 -35 9 -16 8 -31 14 -34 14 -28 -1 -35 1 -31 9 4
5 -2 8 -11 7 -9 -2 -38 5 -63 14 -25 9 -54 16 -63 14 -9 -1 -17 1 -17 5 0 4
-6 8 -12 9 -26 3 -74 12 -118 22 -25 6 -70 13 -100 16 -54 5 -398 12 -403 8z"/>
</g>
</svg>
