<?xml version="1.0" standalone="no"?>
<!DOCTYPE svg PUBLIC "-//W3C//DTD SVG 20010904//EN"
 "http://www.w3.org/TR/2001/REC-SVG-20010904/DTD/svg10.dtd">
<svg version="1.0" xmlns="http://www.w3.org/2000/svg"
 width="260.000000pt" height="260.000000pt" viewBox="0 0 260.000000 260.000000"
 preserveAspectRatio="xMidYMid meet">
<metadata>
Created by potrace 1.11, written by Peter Selinger 2001-2013
</metadata>
<g transform="translate(0.000000,260.000000) scale(0.100000,-0.100000)"
fill="#000000" stroke="none">
<path d="M1648 2041 c-13 -16 -57 -90 -98 -165 l-75 -136 -40 6 c-88 12 -463
19 -670 12 -223 -7 -415 -25 -583 -55 l-92 -16 -10 -41 c-6 -23 -20 -71 -30
-108 -17 -55 -20 -97 -20 -242 0 -164 2 -184 30 -292 74 -282 166 -441 366
-634 111 -107 187 -160 319 -225 228 -111 555 -159 775 -112 279 60 472 161
667 350 186 181 282 349 352 619 29 110 31 130 31 291 0 119 -4 188 -14 220
-7 25 -11 48 -9 51 19 18 -127 52 -377 87 -284 39 -264 34 -284 77 -41 88
-181 324 -197 332 -13 8 -23 3 -41 -19z m162 -231 c65 -118 116 -218 114 -222
-7 -10 -491 -11 -497 0 -3 4 38 81 89 172 52 91 108 189 125 218 16 29 34 52
40 50 5 -2 63 -100 129 -218z m-180 -254 c0 -2 -19 -16 -41 -31 -26 -17 -45
-23 -51 -17 -6 6 3 17 24 30 29 19 68 29 68 18z m-181 -135 c-2 -16 -100 -90
-114 -85 -8 4 -15 10 -15 14 0 16 101 89 116 83 8 -3 14 -8 13 -12z m-594
-180 c42 -25 268 -267 279 -297 14 -42 -9 -75 -153 -218 -180 -178 -172 -177
-318 -33 -152 148 -185 190 -185 232 0 32 14 50 132 173 73 75 142 142 154
149 30 17 56 16 91 -6z m382 11 c19 -12 -74 -104 -98 -97 -28 9 -24 19 29 64
51 44 52 44 69 33z m-567 -715 c0 -6 -88 -123 -121 -161 -8 -9 -65 10 -75 25
-3 5 27 47 66 93 l70 85 30 -17 c16 -9 30 -21 30 -25z"/>
<path d="M1651 1907 c-7 -9 -8 -42 -4 -96 5 -63 10 -84 23 -91 27 -14 37 6 44
93 7 83 0 107 -34 107 -10 0 -23 -6 -29 -13z"/>
<path d="M1655 1684 c-19 -20 -16 -43 8 -58 37 -23 77 35 41 61 -23 17 -29 16
-49 -3z"/>
<path d="M802 1078 c-30 -30 9 -69 44 -43 15 11 17 17 8 32 -14 23 -36 27 -52
11z"/>
<path d="M674 1023 c-3 -10 -10 -26 -15 -35 -5 -11 -5 -19 1 -23 6 -4 7 -13 1
-23 -4 -9 -11 -55 -15 -100 -5 -66 -4 -83 6 -80 17 6 37 63 37 108 l1 34 22
-22 c21 -21 21 -22 5 -57 -38 -80 -7 -88 34 -9 l26 51 26 -21 c25 -21 36 -46
20 -46 -5 0 -19 -9 -33 -20 l-25 -20 109 0 109 0 -44 41 c-33 31 -49 39 -67
34 -16 -4 -35 3 -62 22 -22 15 -40 32 -40 37 0 4 10 25 21 46 l21 38 -23 31
c-19 26 -29 31 -66 31 -33 0 -45 -4 -49 -17z m41 -34 c-10 -15 -25 -10 -19 6
4 8 10 12 15 9 5 -3 7 -10 4 -15z m35 -59 c0 -5 -4 -10 -10 -10 -5 0 -10 5
-10 10 0 6 5 10 10 10 6 0 10 -4 10 -10z"/>
</g>
</svg>
